<?xml version="1.0" standalone="no"?>
<!DOCTYPE svg PUBLIC "-//W3C//DTD SVG 20010904//EN"
 "http://www.w3.org/TR/2001/REC-SVG-20010904/DTD/svg10.dtd">
<svg version="1.0" xmlns="http://www.w3.org/2000/svg"
 width="500.000000pt" height="500.000000pt" viewBox="0 0 500.000000 500.000000"
 preserveAspectRatio="xMidYMid meet">

<g transform="translate(0.000000,500.000000) scale(0.100000,-0.100000)"
fill="#000000" stroke="none">
<path d="M2964 2682 c-27 -21 -45 -59 -69 -142 -10 -36 -22 -69 -26 -74 -4 -4
-12 18 -19 50 -36 181 -31 169 -74 172 l-39 3 6 -37 c4 -21 23 -107 43 -191
l36 -153 34 0 c40 0 40 1 80 135 15 50 30 93 33 97 4 4 22 -45 41 -110 l35
-117 37 -3 c28 -2 38 1 42 15 21 71 86 367 81 371 -11 11 -56 -19 -74 -49 -11
-17 -25 -61 -31 -98 -7 -36 -16 -72 -20 -80 -6 -12 -32 60 -76 212 -7 21 -13
21 -40 -1z"/>
<path d="M915 2681 c-35 -15 -57 -49 -62 -95 -7 -60 21 -87 115 -115 72 -22
90 -39 76 -75 -15 -38 -97 -32 -116 9 -9 20 -18 25 -50 25 -43 0 -48 -12 -22
-61 19 -37 67 -59 131 -59 99 0 159 66 135 148 -13 44 -35 59 -115 81 -66 18
-89 40 -71 69 6 9 25 18 42 20 24 2 34 -3 48 -22 13 -21 25 -26 55 -26 22 0
39 2 39 5 0 25 -34 77 -59 89 -32 17 -112 20 -146 7z"/>
<path d="M1255 2667 c-57 -32 -85 -86 -85 -167 0 -84 27 -134 89 -167 48 -25
129 -31 178 -12 139 52 154 277 23 346 -59 32 -149 32 -205 0z m182 -82 c34
-34 35 -38 31 -92 -6 -73 -45 -113 -109 -113 -113 0 -156 172 -57 227 13 7 40
12 62 13 30 0 45 -7 73 -35z"/>
<path d="M1600 2500 l0 -190 105 0 105 0 0 35 0 35 -95 0 c-86 0 -118 9 -82
23 31 12 47 73 47 181 l0 106 -40 0 -40 0 0 -190z"/>
<path d="M1848 2628 c-3 -138 4 -233 20 -260 34 -58 145 -77 210 -38 51 32 62
70 62 225 l0 136 -29 -15 c-38 -20 -51 -61 -51 -165 0 -103 -14 -131 -64 -131
-57 0 -65 19 -68 170 l-3 135 -37 3 -38 3 -2 -63z"/>
<path d="M2200 2655 c0 -31 3 -35 25 -35 l24 0 -24 -36 c-23 -34 -25 -46 -25
-156 l0 -119 38 3 37 3 6 105 c3 58 6 99 7 93 3 -18 56 -43 92 -43 28 0 30 3
30 35 l0 35 -65 0 -65 0 0 40 0 40 65 0 65 0 0 35 0 35 -105 0 -105 0 0 -35z"/>
<path d="M2434 2676 c-3 -8 -4 -23 -2 -33 3 -15 15 -18 82 -21 l79 -3 -24 -25
c-22 -24 -24 -35 -27 -155 l-4 -130 39 3 38 3 3 153 3 152 49 0 50 0 0 35 0
35 -140 0 c-113 0 -142 -3 -146 -14z"/>
<path d="M3366 2682 c-12 -20 -145 -376 -142 -380 2 -2 18 3 34 12 34 17 77
66 87 97 6 19 8 19 25 4 10 -9 36 -19 58 -22 36 -5 41 -9 51 -44 11 -37 14
-39 51 -39 26 0 40 4 39 13 0 6 -30 91 -67 187 -66 173 -67 175 -99 178 -17 2
-34 -1 -37 -6z m57 -165 c9 -30 17 -57 17 -60 0 -10 -68 -9 -73 1 -6 10 24
112 32 112 4 0 15 -24 24 -53z"/>
<path d="M3610 2495 l0 -195 24 11 c30 14 45 42 54 101 l7 47 50 -72 c50 -70
52 -72 98 -75 26 -2 47 1 47 5 -1 21 -75 106 -106 120 l-35 17 43 16 c53 19
82 67 73 120 -14 78 -54 100 -182 100 l-73 0 0 -195z m166 100 c14 -21 15 -31
6 -50 -10 -21 -19 -25 -52 -25 l-40 0 0 50 0 50 35 0 c26 0 39 -6 51 -25z"/>
<path d="M3930 2655 c0 -31 3 -35 25 -35 14 0 25 -4 25 -10 0 -5 -5 -10 -11
-10 -24 0 -39 -70 -39 -180 l0 -111 108 3 107 3 3 32 3 32 -68 3 -68 3 -3 70
-3 69 25 -23 c13 -12 42 -25 65 -28 l41 -6 0 37 0 36 -65 0 -65 0 0 40 0 39
68 3 67 3 0 30 0 30 -107 3 -108 3 0 -36z"/>
</g>
</svg>
