<?xml version="1.0" standalone="no"?>
<!DOCTYPE svg PUBLIC "-//W3C//DTD SVG 20010904//EN"
 "http://www.w3.org/TR/2001/REC-SVG-20010904/DTD/svg10.dtd">
<svg version="1.0" xmlns="http://www.w3.org/2000/svg"
 width="500.000000pt" height="500.000000pt" viewBox="0 0 500.000000 500.000000"
 preserveAspectRatio="xMidYMid meet">

<g transform="translate(0.000000,500.000000) scale(0.100000,-0.100000)"
fill="#000000" stroke="none">
<path d="M985 2756 c-34 -15 -92 -76 -106 -113 -16 -43 -10 -68 31 -126 22
-30 40 -65 40 -78 0 -12 -20 -43 -45 -70 -46 -49 -55 -75 -33 -97 36 -36 118
5 164 83 41 71 34 122 -27 193 -16 18 -29 40 -29 49 0 9 23 38 50 63 55 51 61
71 28 94 -27 19 -34 19 -73 2z"/>
<path d="M2461 2744 c-32 -26 -61 -101 -61 -156 0 -16 -5 -28 -12 -28 -7 0
-25 -6 -40 -14 -25 -13 -27 -13 -39 15 -31 76 -119 103 -177 54 -84 -71 -85
-255 -2 -330 15 -13 36 -20 65 -20 69 0 117 60 131 164 6 47 9 52 28 47 12 -3
27 -6 34 -6 8 0 12 -22 12 -78 0 -106 31 -150 73 -104 13 14 17 39 17 109 l0
90 33 9 c18 5 36 19 42 32 6 12 16 20 23 17 8 -3 19 -5 27 -5 10 0 11 -20 8
-87 -8 -146 20 -193 115 -193 70 0 104 29 82 71 -8 14 -21 19 -49 19 -46 0
-51 10 -50 83 2 88 10 108 48 121 46 15 62 42 37 62 -11 8 -30 14 -43 14 -20
0 -23 5 -23 43 0 24 -6 51 -13 61 -28 39 -77 -8 -77 -73 0 -16 -7 -31 -15 -35
-12 -4 -15 3 -15 30 0 99 -88 148 -159 88z m79 -110 c0 -12 5 -26 10 -29 6 -3
10 -14 10 -24 0 -14 -7 -16 -35 -13 -31 4 -35 8 -35 32 0 16 5 41 10 55 9 23
13 25 25 15 8 -7 15 -23 15 -36z m-322 -107 c30 -36 18 -163 -16 -175 -15 -5
-42 56 -42 96 0 41 19 92 35 92 7 0 17 -6 23 -13z"/>
<path d="M1431 2709 c-30 -49 -45 -183 -33 -290 13 -109 28 -143 64 -147 20
-2 28 2 34 20 9 29 9 397 0 426 -11 32 -43 28 -65 -9z"/>
<path d="M1920 2638 c-23 -15 -40 -38 -49 -65 -15 -41 -14 -42 23 -103 21 -33
35 -67 32 -75 -3 -8 -24 -22 -46 -31 -37 -15 -41 -20 -38 -48 3 -29 6 -31 48
-34 54 -3 101 22 130 70 31 50 26 88 -15 128 -19 19 -35 41 -35 49 0 9 19 33
42 53 36 31 41 40 32 55 -17 28 -82 29 -124 1z"/>
<path d="M3964 2646 c-58 -26 -95 -97 -95 -187 -1 -99 56 -179 127 -179 64 0
134 54 134 102 0 40 -23 45 -75 17 -35 -18 -49 -21 -62 -13 -26 16 -27 34 -3
34 33 0 88 38 106 72 35 68 11 140 -53 157 -46 13 -41 13 -79 -3z m66 -99 c0
-16 -9 -28 -25 -35 -36 -16 -45 -15 -38 6 17 49 63 70 63 29z"/>
<path d="M1162 2615 c-84 -71 -85 -255 -2 -330 15 -13 36 -20 65 -20 50 0 77
20 108 80 27 52 29 174 4 222 -39 74 -118 96 -175 48z m86 -88 c30 -36 18
-163 -16 -175 -15 -5 -42 56 -42 96 0 41 19 92 35 92 7 0 17 -6 23 -13z"/>
<path d="M2856 2624 c-29 -29 -15 -229 22 -304 19 -38 52 -51 78 -29 9 7 35
46 59 86 42 72 43 73 49 43 10 -53 48 -130 69 -142 17 -9 24 -6 43 15 30 35
60 118 79 221 18 96 11 130 -27 124 -33 -5 -58 -48 -70 -121 l-11 -67 -21 63
c-25 74 -51 117 -71 117 -21 0 -51 -45 -77 -115 l-23 -64 -11 70 c-18 104 -50
142 -88 103z"/>
<path d="M3355 2625 c-37 -20 -55 -42 -55 -71 0 -33 31 -38 78 -14 32 17 45
19 61 10 39 -20 26 -45 -33 -63 -109 -35 -147 -109 -90 -176 29 -35 78 -42
126 -17 25 13 28 13 43 -11 25 -37 57 -27 73 22 16 48 9 166 -14 237 -29 88
-110 123 -189 83z m115 -215 c0 -21 -27 -40 -59 -40 -28 0 -27 25 1 44 31 22
58 20 58 -4z"/>
<path d="M1590 2615 c-34 -41 -50 -172 -30 -246 32 -116 187 -132 243 -25 45
86 19 276 -38 276 -40 0 -47 -21 -40 -117 7 -80 5 -90 -13 -113 -17 -21 -24
-23 -39 -14 -16 10 -18 26 -18 120 0 60 -4 115 -8 122 -11 16 -42 15 -57 -3z"/>
<path d="M3634 2622 c-30 -20 -36 -55 -30 -181 7 -132 20 -171 55 -171 25 0
41 41 41 103 0 110 38 169 94 147 38 -14 66 3 66 39 0 36 -18 51 -69 58 -33 5
-44 1 -66 -21 -31 -31 -35 -32 -35 -8 0 32 -31 51 -56 34z"/>
</g>
</svg>
